<svg width="117" height="117" viewBox="0 0 117 117" fill="none" xmlns="http://www.w3.org/2000/svg">
<path d="M75.4102 11.7914L58.3172 20.475L40.3102 11.2429L3.65625 33.089L20.6578 42.8695V83.3625L58.3172 63.3445L95.4281 83.3625V42.8695L113.344 32.5406L75.4102 11.7914Z" fill="white"/>
<path d="M20.6578 84.2766C20.475 84.2766 20.2922 84.2766 20.2008 84.1852C19.9266 84.0023 19.7438 83.7281 19.7438 83.3625V43.3266L3.19922 33.8203C2.925 33.7289 2.74219 33.3633 2.74219 33.0891C2.74219 32.8148 2.925 32.4492 3.19922 32.2664L39.8531 10.4203C40.1273 10.2375 40.493 10.2375 40.7672 10.4203L58.4086 19.4695L74.9531 10.9688C75.2273 10.7859 75.5016 10.8773 75.7758 10.9688L113.709 31.718C113.984 31.9008 114.166 32.175 114.166 32.5406C114.166 32.9063 113.984 33.1805 113.709 33.3633L96.2508 43.418V83.4539C96.2508 83.8195 96.068 84.0938 95.7938 84.2766C95.5195 84.4594 95.1539 84.4594 94.8797 84.2766L58.3172 64.35L21.1148 84.1852C20.932 84.2766 20.8406 84.2766 20.6578 84.2766ZM5.48438 33.0891L21.1148 42.0469C21.3891 42.2297 21.5719 42.5039 21.5719 42.8695V81.9L57.8602 62.5219C58.1344 62.3391 58.5 62.3391 58.6828 62.5219L94.4227 81.9V42.8695C94.4227 42.5039 94.6055 42.2297 94.8797 42.0469L111.516 32.5406L75.3188 12.8883L59.4141 20.932C59.4141 21.0234 59.3227 21.0234 59.3227 21.1148C59.0484 21.5719 58.5 21.6633 58.043 21.3891L57.8602 21.2063H57.7688L40.3102 12.2484L5.48438 33.0891Z" fill="#989B86"/>
<path d="M58.3172 20.475L95.4281 42.8695V83.3625L58.3172 63.3445V20.475Z" fill="white"/>
<path d="M58.3172 20.475L20.6578 42.8695V83.3625L58.3172 63.3445V20.475Z" fill="white"/>
<path d="M95.4281 84.2766C95.2453 84.2766 95.1539 84.2766 94.9711 84.1852L57.8602 64.0758C57.5859 63.893 57.4031 63.6188 57.4031 63.2532V20.475C57.4031 20.1094 57.5859 19.8352 57.8602 19.6524C58.1344 19.4696 58.5 19.4696 58.7742 19.6524L95.8852 42.0469C96.1594 42.2297 96.3422 42.5039 96.3422 42.8696V83.4539C96.3422 83.8196 96.1594 84.0938 95.8852 84.2766H95.4281ZM59.2313 62.7961L94.5141 81.9V43.3266L59.2313 22.1203V62.7961Z" fill="#989B86"/>
<path d="M20.6578 84.2766C20.475 84.2766 20.2922 84.2766 20.2008 84.1852C19.9266 84.0024 19.7438 83.7282 19.7438 83.3625V42.8696C19.7438 42.5039 19.9266 42.2297 20.2008 42.0469L57.8602 19.6524C58.1344 19.4696 58.5 19.4696 58.7742 19.6524C59.0485 19.8352 59.2313 20.1094 59.2313 20.475V63.3446C59.2313 63.7102 59.0485 63.9844 58.7742 64.1672L21.1149 84.2766H20.6578ZM21.5719 43.3266V81.9L57.4031 62.7961V22.1203L21.5719 43.3266Z" fill="#989B86"/>
<path d="M58.3172 62.8875L42.5039 56.6718L20.6578 42.7781V83.3624L58.3172 105.757L95.4282 83.3624V42.7781L78.7008 55.2093L58.3172 62.8875Z" fill="white"/>
<path d="M58.3172 106.671C58.1344 106.671 57.9516 106.671 57.8602 106.58L20.2008 84.1852C19.9266 84.0023 19.7438 83.7281 19.7438 83.3625V42.7781C19.7438 42.4125 19.9266 42.1383 20.2008 41.9555C20.475 41.7727 20.8406 41.7727 21.1149 41.9555L42.961 55.8492L58.4086 61.9734L78.3352 54.3867L94.8797 42.0469C95.1539 41.8641 95.5196 41.7727 95.7938 41.9555C96.068 42.1383 96.2508 42.4125 96.2508 42.7781V83.3625C96.2508 83.7281 96.068 84.0023 95.7938 84.1852L58.6828 106.58C58.6828 106.58 58.5 106.671 58.3172 106.671ZM21.5719 82.9055L58.3172 104.752L94.5141 82.9055V44.6062L79.2492 55.9406C79.1578 56.032 79.0664 56.032 79.0664 56.032L58.6828 63.8016C58.5 63.893 58.2258 63.893 58.043 63.8016L42.2297 57.5859C42.1383 57.5859 42.1383 57.4945 42.0469 57.4945L21.5719 44.5148V82.9055Z" fill="#989B86"/>
<path d="M58.3172 105.757L95.4281 83.3624V42.7781L76.05 56.5804L58.3172 62.8875V105.757Z" fill="white"/>
<path d="M58.3172 106.671C58.1344 106.671 58.043 106.671 57.8602 106.58C57.5859 106.397 57.4031 106.123 57.4031 105.757V62.8875C57.4031 62.5218 57.6774 62.1562 58.043 62.0648L75.6844 55.7578L94.8797 42.0468C95.1539 41.864 95.5195 41.864 95.7938 41.9554C96.068 42.1382 96.2508 42.4125 96.2508 42.7781V83.3625C96.2508 83.7281 96.068 84.0023 95.7938 84.1851L58.6828 106.58C58.6828 106.58 58.5 106.671 58.3172 106.671ZM59.2313 63.5273V104.112L94.5141 82.9054V44.6062L76.5985 57.3117C76.507 57.4031 76.4156 57.4031 76.4156 57.4031L59.2313 63.5273Z" fill="#989B86"/>
<path d="M28.8844 69.0117L58.3172 85.6476V62.8875L41.4985 57.2203L20.6578 42.7781L28.8844 69.0117Z" fill="white"/>
<path d="M3.65625 52.5585L20.6578 42.7781L58.3172 62.8875L40.2188 73.2164L3.65625 52.5585Z" fill="white"/>
<path d="M75.3188 79.2492L95.4281 68.9203V42.8695L79.0664 54.9351L58.5914 62.7047L58.3172 62.8875L75.3188 79.2492Z" fill="white"/>
<path d="M58.3172 62.8875L75.3188 72.6679L113.344 53.107L95.4281 42.8695L58.3172 62.8875Z" fill="white"/>
<path d="M40.2188 74.1305C40.0359 74.1305 39.9445 74.1305 39.7617 74.0391L3.19922 53.3813C2.925 53.1985 2.74219 52.9242 2.74219 52.5586C2.74219 52.193 2.925 51.9188 3.19922 51.736L20.2008 42.0469C20.475 41.8641 20.8406 41.8641 21.1148 42.0469L58.7742 62.1563C59.0484 62.3391 59.2313 62.6133 59.2313 62.9789C59.2313 63.3446 59.0484 63.6188 58.7742 63.8016L40.6758 74.0391C40.5844 74.1305 40.4016 74.1305 40.2188 74.1305ZM5.48438 52.5586L40.2188 72.211L56.3977 62.9789L20.6578 43.875L5.48438 52.5586Z" fill="#989B86"/>
<path d="M75.3188 73.582C75.136 73.582 75.0445 73.582 74.8617 73.4906L57.8602 63.7102C57.5859 63.5273 57.4031 63.2531 57.4031 62.8875C57.4031 62.5219 57.5859 62.2477 57.8602 62.0648L94.9711 41.9555C95.2453 41.7727 95.611 41.7727 95.8852 41.9555L113.801 52.2844C114.075 52.4672 114.258 52.7414 114.258 53.107C114.258 53.4727 114.075 53.7469 113.801 53.9297L75.7758 73.4906C75.593 73.582 75.5016 73.582 75.3188 73.582ZM60.2367 62.8875L75.4102 71.5711L111.516 53.0156L95.3367 43.875L60.2367 62.8875Z" fill="#989B86"/>
</svg>
