<svg width="181" height="181" viewBox="0 0 181 181" fill="none" xmlns="http://www.w3.org/2000/svg">
<rect width="181" height="181" fill="#989B86"/>
<path fill-rule="evenodd" clip-rule="evenodd" d="M91 24.0399C71.8025 24.0399 56.24 39.6025 56.24 58.7999C56.24 77.9973 71.8025 93.5599 91 93.5599C110.197 93.5599 125.76 77.9973 125.76 58.7999C125.76 39.6025 110.197 24.0399 91 24.0399ZM60.24 58.7999C60.24 41.8116 74.0117 28.0399 91 28.0399C107.988 28.0399 121.76 41.8116 121.76 58.7999C121.76 75.7882 107.988 89.5599 91 89.5599C74.0117 89.5599 60.24 75.7882 60.24 58.7999ZM41.0002 153.439C41.0002 135.056 45.8468 122.129 54.3137 113.784C62.7865 105.434 75.2028 101.36 90.9995 101.36C106.796 101.36 119.213 105.434 127.686 113.784C136.153 122.129 141 135.056 141 153.439C141 154.544 141.895 155.439 143 155.439C144.104 155.439 145 154.544 145 153.439C145 134.383 139.967 120.271 130.494 110.935C121.027 101.605 107.443 97.3597 90.9995 97.3597C74.5562 97.3597 60.9728 101.605 51.506 110.935C42.0333 120.271 37.0002 134.383 37.0002 153.439C37.0002 154.544 37.8956 155.439 39.0002 155.439C40.1048 155.439 41.0002 154.544 41.0002 153.439Z" fill="white"/>
</svg>
