<svg width="158" height="158" viewBox="0 0 158 158" fill="none" xmlns="http://www.w3.org/2000/svg">
<rect width="158" height="158" fill="#989B86"/>
<path d="M134 79C134 109.25 109.25 134 79 134C48.75 134 24 109.25 24 79C24 48.75 48.75 24 79 24C109.25 24 134 48.75 134 79ZM79 32.25C52.875 32.25 32.25 52.875 32.25 79C32.25 105.125 52.875 125.75 79 125.75C105.125 125.75 125.75 105.125 125.75 79C125.75 52.875 105.125 32.25 79 32.25ZM104.667 57L103.75 57.9167C104.208 57.4583 105.125 57 105.583 57H104.667ZM105.583 57H107.875V48.2917H82.6667V57H86.7917C87.7083 57 88.1667 57.4583 88.1667 58.375C88.1667 58.8333 88.1667 59.2917 87.7083 59.2917L70.2917 76.7083H69.8333C69.375 76.7083 68.9167 76.25 68.9167 75.7917V60.2083C68.9167 58.375 70.2917 57 72.125 57H75.7917V48.2917H48.75V57H51.9583C53.7917 57 55.1667 58.375 55.1667 60.2083V98.7083C55.1667 100.542 53.7917 101.917 51.9583 101.917H48.75V111.083H75.7917V101.917H72.125C70.2917 101.917 68.9167 100.542 68.9167 98.7083V92.2917C68.9167 91.8333 68.9167 91.375 69.375 90.9167L76.25 84.0417C76.25 84.0417 76.7083 83.5833 77.1667 83.5833C77.625 83.5833 78.0833 83.5833 78.0833 84.0417L87.7083 99.1667V100.083C87.7083 101 87.25 101.458 86.3333 101.458H82.2083V110.625H111.083V101.458H107.875C106.958 101.458 106.042 101 105.583 100.083V99.625L88.625 74.4167C88.625 73.9583 88.1667 73.9583 88.1667 73.5C88.1667 73.0417 88.1667 72.5833 88.625 72.5833L103.292 57.9167C104.208 57 104.667 57 105.583 57Z" fill="white"/>
</svg>
