<svg width="200" height="200" viewBox="0 0 200 200" fill="none" xmlns="http://www.w3.org/2000/svg">
<path d="M80.9271 4.59028V96.8834L74.2284 96.9061H74.0561C66.9737 96.9061 60.597 95.3918 55.1019 92.4046C54.3762 92.0047 53.7448 91.6324 53.1687 91.2664C52.5462 90.8752 51.9311 90.4576 51.3375 90.025C46.7253 86.6844 42.849 82.1578 39.814 76.5696C39.4946 75.9873 39.1763 75.3685 38.8368 74.6793C34.7654 66.353 32.5946 56.2709 32.5568 45.5223C32.543 41.4384 32.8499 37.5985 33.4549 34.1661C33.4725 34.1032 33.4825 34.0416 33.4913 33.9888C34.4221 29.2999 35.9087 25.1192 37.9073 21.5597C41.0818 15.9049 45.6789 11.6123 51.5727 8.80246C57.347 6.05429 64.496 4.64562 72.8197 4.61795L80.9271 4.59028ZM98.811 4.29596L99.2814 3.94128L99.2688 0.400733L72.1921 0.493813C65.7952 0.423379 59.3556 1.04848 52.9511 2.4169C51.0633 2.82189 48.9251 3.27971 46.5517 4.06077C34.5328 8.0214 27.019 16.8797 25.6355 18.6141C19.7656 25.9807 16.5407 35.0415 16.0515 45.5436C15.205 63.7771 24.945 79.0788 34.3416 87.3183C37.7274 90.2866 44.9821 95.7402 55.5496 98.9222C61.3956 100.683 67.4642 101.512 73.6196 101.387L80.8504 101.364L80.9963 143.7C81.0001 144.812 80.9774 145.822 80.9284 146.739C80.8743 147.724 80.7913 148.585 80.6731 149.373C80.6278 149.678 80.5775 149.974 80.5272 150.247C80.3234 151.301 80.0505 152.186 79.6945 152.951C79.5273 153.306 79.3436 153.629 79.1449 153.916C78.7663 154.47 78.306 154.948 77.7375 155.376L77.2683 155.729L77.2797 158.988L99.27 158.914L99.2575 155.631L98.7544 155.282C97.9959 154.756 97.4061 154.133 96.9495 153.379C95.8075 151.487 95.2893 148.486 95.2729 143.651L94.9094 16.5288C94.8805 7.97989 96.908 5.73105 98.811 4.29596Z" fill="black"/>
<path d="M184.121 86.5554C184.023 84.4449 183.761 78.8391 181.522 72.3705C180.404 69.1444 178.286 64.3147 174.537 59.6258C171.396 55.6991 168.281 53.2541 167.087 52.3863C164.94 50.8229 162.342 49.3148 159.36 47.8999L159.131 47.793C159.078 47.6785 159.026 47.5628 158.975 47.4446C158.704 46.8358 158.449 46.1843 158.215 45.5039C158.379 44.0952 158.777 42.7155 159.198 41.2552C159.809 39.1359 160.44 36.9424 160.304 34.6093C159.985 30.7342 157.918 27.9848 155.919 25.3246C154.408 23.316 152.982 21.4194 152.279 19.0825L151.428 16.2614L150.952 19.168C150.74 20.4496 150.501 21.725 150.264 22.9878C148.671 31.4612 147.168 39.4642 154.787 45.6435C155.019 45.8762 155.27 46.1001 155.526 46.3239C155.534 46.3478 155.543 46.3705 155.55 46.3944C154.419 46.0296 153.261 45.6825 152.093 45.3605C151.132 45.0939 150.423 44.9165 149.858 44.7744C148.739 44.4939 148.227 44.3656 147.411 43.9669C147.148 43.8374 146.868 43.6902 146.333 43.3053C145.621 42.7934 144.575 41.9369 143.135 40.6918C141.792 39.5309 140.441 38.3222 139.114 37.0959C138.589 35.7212 138.545 33.7289 138.51 32.1177C138.496 31.5077 138.484 30.9417 138.449 30.4462C137.699 21.6785 132.223 16.1557 126.423 10.3085L125.132 9.00166C124.637 8.47341 124.147 7.94265 123.659 7.41188C121.671 5.25234 119.616 3.01985 117.303 1.1433L115.897 -2.53384e-06L116.203 1.78726C116.613 4.19961 116.824 6.73647 117.047 9.41923C117.476 14.5722 117.918 19.9 119.887 24.4015C122.055 29.2526 125.891 31.4398 129.952 33.7553C130.93 34.3137 131.923 34.8785 132.909 35.4935C133.912 36.1123 134.846 36.8267 135.836 37.5814C136.523 38.1071 137.215 38.6341 137.84 39.0542C139.586 40.7685 141.468 42.4337 143.435 44.0021C143.827 44.3141 144.224 44.626 144.628 44.9341C142.579 44.7279 140.608 44.8775 139.1 45.0511C137.312 44.5467 135.663 43.7204 133.918 42.8475C133.045 42.4098 132.171 41.9734 131.282 41.5785C129.049 40.5874 127.227 40.1082 125.373 40.0226C122.22 39.8616 119.205 40.7295 116.544 41.4929L116.263 41.5734C113.518 42.3633 110.684 43.1896 107.809 43.0878L105.98 43.0312L107.324 44.2725C108.102 44.9895 108.902 45.7781 109.725 46.5918C112.238 49.0671 115.085 51.8744 118.243 53.5509C119.532 54.2364 120.821 54.7018 122.073 54.9319C127.354 55.9092 131.542 52.6718 135.235 49.8117L136.615 48.7237C137.079 48.3464 137.518 47.9867 137.976 47.676C139.269 47.4773 140.59 47.3716 141.96 47.3603C142.91 47.3515 144.515 47.344 145.886 47.6068C146.707 47.9049 147.519 48.252 148.299 48.6394C151.371 50.1651 153.3 52.0077 155.341 53.9584C159.4 57.8348 161.536 61.2735 162.268 62.574C162.324 62.6771 162.566 63.1047 162.869 63.6959C164.564 66.9975 165.847 70.8009 166.705 75.1225C167.323 78.6114 167.629 82.4501 167.614 86.534C167.578 97.2826 165.407 107.365 161.336 115.69C160.996 116.38 160.678 116.999 160.357 117.583C157.323 123.17 153.447 127.696 148.834 131.038C148.241 131.469 147.626 131.887 147.001 132.281C146.428 132.645 145.796 133.016 145.073 133.415C139.53 136.429 133.045 137.939 125.944 137.918L119.245 137.895V101.548C119.245 100.749 118.996 99.9868 118.525 99.3428L106.927 83.4965C106.68 83.1607 106.252 83.0198 105.852 83.1494C105.455 83.2789 105.189 83.6462 105.188 84.0625L104.899 184.662C104.883 189.499 104.365 192.499 103.223 194.39C103.161 194.491 103.1 194.589 103.03 194.687C102.605 195.31 102.078 195.836 101.417 196.293L100.915 196.7L100.901 199.926L122.893 200L122.903 197.083L122.881 196.724L122.435 196.389C121.866 195.96 121.406 195.482 121.025 194.925C120.967 194.839 120.908 194.749 120.811 194.59C120.694 194.394 120.582 194.184 120.479 193.965C120.122 193.198 119.849 192.311 119.647 191.265C119.595 190.986 119.545 190.69 119.499 190.385C119.381 189.597 119.298 188.736 119.244 187.751C119.195 186.834 119.172 185.824 119.176 184.712L119.322 142.375L126.541 142.4C132.688 142.519 138.773 141.696 144.623 139.934C155.19 136.752 162.445 131.298 165.831 128.331C175.227 120.091 184.967 104.789 184.121 86.5554Z" fill="black"/>
</svg>
