<svg width="23" height="23" viewBox="0 0 23 23" fill="none" xmlns="http://www.w3.org/2000/svg">
<path d="M23 11.5C23 17.825 17.825 23 11.5 23C5.175 23 0 17.825 0 11.5C0 5.175 5.175 0 11.5 0C17.825 0 23 5.175 23 11.5ZM11.5 1.725C6.0375 1.725 1.725 6.0375 1.725 11.5C1.725 16.9625 6.0375 21.275 11.5 21.275C16.9625 21.275 21.275 16.9625 21.275 11.5C21.275 6.0375 16.9625 1.725 11.5 1.725ZM16.8667 6.9L16.675 7.09167C16.7708 6.99583 16.9625 6.9 17.0583 6.9H16.8667ZM17.0583 6.9H17.5375V5.07917H12.2667V6.9H13.1292C13.3208 6.9 13.4167 6.99583 13.4167 7.1875C13.4167 7.28333 13.4167 7.37917 13.3208 7.37917L9.67917 11.0208H9.58333C9.4875 11.0208 9.39167 10.925 9.39167 10.8292V7.57083C9.39167 7.1875 9.67917 6.9 10.0625 6.9H10.8292V5.07917H5.175V6.9H5.84583C6.22917 6.9 6.51667 7.1875 6.51667 7.57083V15.6208C6.51667 16.0042 6.22917 16.2917 5.84583 16.2917H5.175V18.2083H10.8292V16.2917H10.0625C9.67917 16.2917 9.39167 16.0042 9.39167 15.6208V14.2792C9.39167 14.1833 9.39167 14.0875 9.4875 13.9917L10.925 12.5542C10.925 12.5542 11.0208 12.4583 11.1167 12.4583C11.2125 12.4583 11.3083 12.4583 11.3083 12.5542L13.3208 15.7167V15.9083C13.3208 16.1 13.225 16.1958 13.0333 16.1958H12.1708V18.1125H18.2083V16.1958H17.5375C17.3458 16.1958 17.1542 16.1 17.0583 15.9083V15.8125L13.5125 10.5417C13.5125 10.4458 13.4167 10.4458 13.4167 10.35C13.4167 10.2542 13.4167 10.1583 13.5125 10.1583L16.5792 7.09167C16.7708 6.9 16.8667 6.9 17.0583 6.9Z" fill="#989B86"/>
</svg>
