<svg width="23" height="23" viewBox="0 0 23 23" fill="none" xmlns="http://www.w3.org/2000/svg">
<path d="M22.9999 18.8929H9.25098V20.5357H22.9999V18.8929Z" fill="#989B86"/>
<path d="M2.54355 19.7143L0.00982089 21.8336L1.39453 23L5.3228 19.7143L1.39453 16.4286L0 17.5868L2.54355 19.7143Z" fill="#989B86"/>
<path d="M22.9999 10.6786H9.25098V12.3214H22.9999V10.6786Z" fill="#989B86"/>
<path d="M2.54355 11.5L0.00982089 13.6193L1.39453 14.7857L5.3228 11.5L1.39453 8.21429L0 9.3725L2.54355 11.5Z" fill="#989B86"/>
<path d="M22.9999 2.46429H9.25098V4.10714H22.9999V2.46429Z" fill="#989B86"/>
<path d="M2.54355 3.28571L0.00982089 5.405L1.39453 6.57143L5.3228 3.28571L1.39453 0L0 1.15821L2.54355 3.28571Z" fill="#989B86"/>
</svg>
