<svg width="23" height="23" viewBox="0 0 23 23" fill="none" xmlns="http://www.w3.org/2000/svg">
<path d="M5.40503 10.6636H17.618V11.8041H5.40503V10.6636ZM5.40503 15.6818H12.88V16.8223H5.40503V15.6818Z" fill="#989B86"/>
<path d="M20.309 23H2.691C2.323 23 1.978 22.943 1.633 22.8289C1.311 22.7149 1.012 22.5628 0.782 22.3537C0.529 22.1446 0.345 21.9165 0.207 21.6504C0.0689999 21.3653 0 21.0802 0 20.776V5.62644C0 5.32231 0.0689999 5.03719 0.207 4.75206C0.345 4.48595 0.529 4.23884 0.782 4.04876C1.035 3.83967 1.311 3.6876 1.633 3.57355C1.978 3.4595 2.323 3.40248 2.691 3.40248H5.359V4.52396H2.691C1.955 4.52396 1.334 5.01818 1.334 5.64545V20.795C1.334 21.4033 1.932 21.9165 2.691 21.9165H20.286C21.022 21.9165 21.643 21.4223 21.643 20.795V5.62644C21.643 5.01818 21.045 4.50496 20.286 4.50496H17.641V3.38347H20.309C20.677 3.38347 21.022 3.44049 21.367 3.55454C21.689 3.66859 21.988 3.82066 22.218 4.02975C22.471 4.23884 22.655 4.46694 22.793 4.73306C22.931 5.01818 23 5.3033 23 5.60744V20.757C23 21.0612 22.931 21.3463 22.793 21.6314C22.655 21.8975 22.471 22.1446 22.218 22.3347C21.965 22.5438 21.689 22.6959 21.367 22.8099C21.022 22.943 20.677 23 20.309 23Z" fill="#989B86"/>
<path d="M18.262 6.74793H4.73798V3.09835C4.73798 2.31901 5.49698 1.69174 6.43998 1.69174H8.18798C8.80898 0.665289 10.097 0 11.523 0C12.949 0 14.237 0.665289 14.858 1.69174H16.606C17.549 1.69174 18.308 2.31901 18.308 3.09835L18.262 6.74793ZM6.09498 5.62645H16.928V3.09835C16.928 2.94628 16.767 2.81322 16.583 2.81322H13.892L13.731 2.43306C13.409 1.65372 12.512 1.12149 11.5 1.12149C10.488 1.12149 9.59098 1.65372 9.26898 2.43306L9.10798 2.81322H6.41698C6.23298 2.81322 6.07198 2.94628 6.07198 3.09835V5.62645H6.09498Z" fill="#989B86"/>
</svg>
