<svg width="23" height="23" viewBox="0 0 23 23" fill="none" xmlns="http://www.w3.org/2000/svg">
<g clip-path="url(#clip0_30_8742)">
<path d="M14.9433 4.95951L14.0896 3.76964L13.2791 4.33801L11.0433 3.50354L7.69489 12.476L4.346 3.50354L4.16284 3.57212V3.55808H0V19.0744H4.16284V14.8897L5.87152 19.4964L7.69478 18.8156L9.51772 19.4964L13.17 9.70952L19.5925 18.8621L22.9999 16.4717L14.9366 4.97798L14.9433 4.95951ZM13.7089 4.49838L13.9964 4.29675L14.2906 4.71566L14.0833 4.63802L13.7089 4.49838ZM3.78443 18.6959H0.378411V17.939H2.08137V17.5606H0.378411V16.8036H2.08137V16.4252H0.378411V15.6683H2.08137V15.2899H0.378411V14.533H2.08137V14.1544H0.378411V13.3976H2.08137V13.0191H0.378411V12.2622H2.08137V11.8838H0.378411V11.1267H2.08137V10.7483H0.378411V9.9916H2.08137V9.61319H0.378411V8.85626H2.08137V8.47785H0.378411V7.72092H2.08137V7.34251H0.378411V6.58569H2.08137V6.20728H0.378411V5.45035H2.08137V5.07194H0.378411V3.93649H3.78443V13.8693V18.6959ZM5.7496 18.0873L7.43484 17.3924L7.29078 17.0424L5.61752 17.7328L5.35272 17.0225L7.00189 16.3425L6.85772 15.9929L5.2201 16.6681L4.95508 15.9586L6.5684 15.293L6.42434 14.9433L4.82312 15.6034L4.5581 14.8939L6.13621 14.2431L5.99204 13.8935L4.42559 14.5392L4.16306 13.8355V13.8288L5.70283 13.1931L5.55877 12.8435L4.16306 13.4193V12.7001L5.26125 12.2469L5.11675 11.8974L4.16306 12.2913V11.6087L4.8283 11.334L4.6838 10.9844L4.16306 11.1993V4.09545L7.49283 13.017L9.28488 17.8186L6.09345 19.0093L5.7496 18.0873ZM9.29601 19.0093L8.23648 18.6138L9.54882 18.1238L9.639 18.0902L9.29601 19.0093ZM9.71459 17.8874L8.23 13.9096L9.16998 14.2781L9.30789 13.9251L8.05213 13.4331L7.89673 13.0169L8.04565 12.6175L9.58381 13.2203L9.72139 12.8673L8.17773 12.2622L8.44275 11.5541L9.99764 12.1628L10.1353 11.8102L8.57482 11.1993L8.8393 10.4901L10.4113 11.1058L10.5491 10.7532L8.9717 10.135L9.23618 9.42614L10.8253 10.0487L10.963 9.69613L9.36869 9.0716L9.6337 8.3624L11.2395 8.99147L11.3772 8.63865L9.76578 8.00786L10.0303 7.29866L11.6531 7.9341L11.7907 7.58139L10.1628 6.94423L10.4274 6.2346L12.067 6.87673L12.2048 6.52391L10.5596 5.88005L10.8247 5.17107L12.4813 5.81968L12.6188 5.46687L10.9567 4.8161L11.2647 3.98994L12.9021 4.60097L14.4555 5.1809L12.9062 9.33262L9.71459 17.8874ZM22.473 16.3794L19.685 18.3352L19.1579 17.585L20.655 16.4781L20.43 16.1733L18.9402 17.2746L18.5053 16.6548L19.9798 15.5649L19.7548 15.2604L18.2879 16.3448L17.8533 15.7247L19.305 14.6514L19.0799 14.347L17.6353 15.4143L17.2011 14.795L18.6301 13.7383L18.4051 13.4335L16.9833 14.4845L16.5488 13.8651L17.9554 12.8251L17.7307 12.5206L16.3315 13.5546L15.8969 12.935L17.2805 11.9123L17.055 11.6074L15.6795 12.6249L15.245 12.0051L16.6054 10.999L16.3803 10.6942L15.027 11.6951L14.5924 11.0753L15.9307 10.0862L15.7056 9.78144L14.3752 10.7655L13.9406 10.146L15.2563 9.173L15.0309 8.86846L13.723 9.83565L13.3316 9.2783L13.3803 9.14773L14.5807 8.25981L14.3561 7.95526L13.6228 8.49707L14.7763 5.40628L22.473 16.3794Z" fill="#989B86"/>
</g>
<defs>
<clipPath id="clip0_30_8742">
<rect width="23" height="23" fill="white"/>
</clipPath>
</defs>
</svg>
