<svg width="23" height="23" viewBox="0 0 23 23" fill="none" xmlns="http://www.w3.org/2000/svg">
<path d="M6.03749 4.60001C5.80874 4.60001 5.58936 4.69088 5.42761 4.85263C5.26586 5.01438 5.17499 5.23376 5.17499 5.46251V14.0875C5.17499 14.3163 5.26586 14.5356 5.42761 14.6974C5.58936 14.8591 5.80874 14.95 6.03749 14.95C6.26624 14.95 6.48562 14.8591 6.64737 14.6974C6.80912 14.5356 6.89999 14.3163 6.89999 14.0875V5.46251C6.89999 5.23376 6.80912 5.01438 6.64737 4.85263C6.48562 4.69088 6.26624 4.60001 6.03749 4.60001ZM11.5 4.60001C11.2712 4.60001 11.0519 4.69088 10.8901 4.85263C10.7284 5.01438 10.6375 5.23376 10.6375 5.46251V10.6375C10.6375 10.8663 10.7284 11.0856 10.8901 11.2474C11.0519 11.4091 11.2712 11.5 11.5 11.5C11.7287 11.5 11.9481 11.4091 12.1099 11.2474C12.2716 11.0856 12.3625 10.8663 12.3625 10.6375V5.46251C12.3625 5.23376 12.2716 5.01438 12.1099 4.85263C11.9481 4.69088 11.7287 4.60001 11.5 4.60001ZM16.1 5.46251C16.1 5.23376 16.1909 5.01438 16.3526 4.85263C16.5144 4.69088 16.7337 4.60001 16.9625 4.60001C17.1912 4.60001 17.4106 4.69088 17.5724 4.85263C17.7341 5.01438 17.825 5.23376 17.825 5.46251V16.3875C17.825 16.6163 17.7341 16.8356 17.5724 16.9974C17.4106 17.1591 17.1912 17.25 16.9625 17.25C16.7337 17.25 16.5144 17.1591 16.3526 16.9974C16.1909 16.8356 16.1 16.6163 16.1 16.3875V5.46251Z" fill="#989B86"/>
<path fill-rule="evenodd" clip-rule="evenodd" d="M2.0125 0C1.47875 0 0.966865 0.212031 0.589448 0.589448C0.212031 0.966865 0 1.47875 0 2.0125V20.9875C0 22.0984 0.9016 23 2.0125 23H20.9875C21.5212 23 22.0331 22.788 22.4106 22.4106C22.788 22.0331 23 21.5212 23 20.9875V2.0125C23 1.47875 22.788 0.966865 22.4106 0.589448C22.0331 0.212031 21.5212 0 20.9875 0H2.0125ZM1.725 2.0125C1.725 1.93625 1.75529 1.86312 1.80921 1.80921C1.86312 1.75529 1.93625 1.725 2.0125 1.725H20.9875C21.0637 1.725 21.1369 1.75529 21.1908 1.80921C21.2447 1.86312 21.275 1.93625 21.275 2.0125V20.9875C21.275 21.0637 21.2447 21.1369 21.1908 21.1908C21.1369 21.2447 21.0637 21.275 20.9875 21.275H2.0125C1.93625 21.275 1.86312 21.2447 1.80921 21.1908C1.75529 21.1369 1.725 21.0637 1.725 20.9875V2.0125Z" fill="#989B86"/>
</svg>
