<svg width="23" height="25" viewBox="0 0 23 25" fill="none" xmlns="http://www.w3.org/2000/svg">
<path fill-rule="evenodd" clip-rule="evenodd" d="M11.5 7.90903C9.15997 7.90903 7.263 9.80599 7.263 12.146C7.263 14.4861 9.15997 16.383 11.5 16.383C13.84 16.383 15.737 14.4861 15.737 12.146C15.737 9.80599 13.84 7.90903 11.5 7.90903ZM8.95779 12.146C8.95779 10.742 10.096 9.60382 11.5 9.60382C12.904 9.60382 14.0422 10.742 14.0422 12.146C14.0422 13.55 12.904 14.6882 11.5 14.6882C10.096 14.6882 8.95779 13.55 8.95779 12.146Z" fill="#989B86"/>
<path fill-rule="evenodd" clip-rule="evenodd" d="M11.4714 4.79941e-07C10.9693 -1.08187e-05 10.55 -1.0872e-05 10.2058 0.0234677C9.84757 0.0479179 9.50918 0.100615 9.18108 0.236515C8.41975 0.551871 7.81487 1.15674 7.49951 1.91808C7.33534 2.31443 7.29088 2.73214 7.2739 3.18617C7.26025 3.55115 7.07606 3.85567 6.80423 4.01261C6.53241 4.16954 6.17659 4.1768 5.85369 4.00613C5.452 3.79382 5.06801 3.62346 4.64267 3.56746C3.82566 3.4599 2.99938 3.68131 2.34561 4.18297C2.06387 4.39915 1.84901 4.66588 1.64871 4.96394C1.45628 5.25026 1.24668 5.61333 0.995594 6.04823L0.967065 6.09765C0.715965 6.53255 0.506353 6.8956 0.354601 7.20539C0.196635 7.5279 0.0730614 7.84734 0.0267032 8.19942C-0.0808598 9.01644 0.140548 9.84271 0.642196 10.4965C0.90333 10.8367 1.2428 11.0842 1.62745 11.3259C1.93678 11.5202 2.10844 11.832 2.10842 12.146C2.10841 12.4599 1.93675 12.7717 1.62745 12.9661C1.24275 13.2078 0.903251 13.4552 0.642094 13.7955C0.140435 14.4492 -0.0809615 15.2755 0.0265902 16.0925C0.0729484 16.4446 0.196521 16.7641 0.354488 17.0866C0.506239 17.3964 0.715852 17.7594 0.966941 18.1943L0.995481 18.2438C1.24657 18.6787 1.45617 19.0417 1.6486 19.328C1.8489 19.6261 2.06376 19.8928 2.3455 20.109C2.99927 20.6106 3.82555 20.8321 4.64255 20.7245C5.06788 20.6685 5.45184 20.4982 5.85351 20.2859C6.17645 20.1152 6.53232 20.1224 6.80417 20.2795C7.07604 20.4364 7.26025 20.7409 7.2739 21.1059C7.29088 21.5599 7.33535 21.9776 7.49951 22.374C7.81487 23.1353 8.41975 23.7402 9.18108 24.0556C9.50918 24.1915 9.84757 24.2441 10.2058 24.2685C10.55 24.292 10.9693 24.292 11.4714 24.292H11.5285C12.0307 24.292 12.4499 24.292 12.7941 24.2685C13.1524 24.2441 13.4908 24.1915 13.8189 24.0556C14.5802 23.7402 15.1852 23.1353 15.5005 22.374C15.6647 21.9776 15.7091 21.5599 15.726 21.1058C15.7397 20.7409 15.9239 20.4364 16.1957 20.2793C16.4675 20.1224 16.8235 20.1152 17.1464 20.2858C17.548 20.4981 17.932 20.6685 18.3574 20.7244C19.1744 20.832 20.0006 20.6106 20.6544 20.109C20.9362 19.8927 21.1509 19.6261 21.3513 19.328C21.5437 19.0417 21.7533 18.6787 22.0043 18.2438L22.0329 18.1943C22.284 17.7594 22.4937 17.3963 22.6454 17.0865C22.8034 16.764 22.9269 16.4446 22.9733 16.0925C23.0809 15.2754 22.8594 14.4491 22.3577 13.7954C22.0966 13.4551 21.7571 13.2078 21.3725 12.9661C21.0632 12.7717 20.8915 12.4599 20.8915 12.1459C20.8915 11.832 21.0632 11.5203 21.3724 11.326C21.7572 11.0843 22.0967 10.837 22.3579 10.4965C22.8595 9.84279 23.081 9.01652 22.9734 8.1995C22.927 7.84742 22.8035 7.52798 22.6455 7.20547C22.4938 6.8957 22.2842 6.53267 22.033 6.09781L22.0046 6.04836C21.7534 5.61344 21.5438 5.25034 21.3514 4.96402C21.1511 4.66596 20.9363 4.39923 20.6545 4.18303C20.0007 3.68139 19.1745 3.45998 18.3574 3.56754C17.9321 3.62354 17.5481 3.79388 17.1465 4.00618C16.8236 4.17687 16.4677 4.1696 16.1958 4.01264C15.924 3.85569 15.7397 3.55112 15.726 3.18611C15.7091 2.7321 15.6647 2.31441 15.5005 1.91808C15.1852 1.15674 14.5802 0.551871 13.8189 0.236515C13.4908 0.100615 13.1524 0.0479179 12.7941 0.0234677C12.4499 -1.0872e-05 12.0307 -1.08187e-05 11.5285 4.79941e-07H11.4714ZM9.8296 1.8023C9.91683 1.76619 10.0493 1.73289 10.3212 1.71433C10.6008 1.69526 10.962 1.69479 11.5 1.69479C12.038 1.69479 12.3991 1.69526 12.6787 1.71433C12.9507 1.73289 13.0832 1.76619 13.1703 1.8023C13.5163 1.94565 13.7914 2.22059 13.9346 2.56665C13.9799 2.67581 14.0173 2.84598 14.0325 3.24945C14.0659 4.14473 14.528 5.00675 15.3484 5.48038C16.1687 5.95401 17.1464 5.92319 17.9384 5.50456C18.2953 5.31589 18.4615 5.26326 18.5786 5.24784C18.95 5.19895 19.3255 5.29959 19.6227 5.5276C19.6976 5.58505 19.7926 5.68308 19.9447 5.90936C20.1011 6.14197 20.282 6.45445 20.551 6.92041C20.82 7.38638 21.0002 7.69931 21.1235 7.95099C21.2434 8.19582 21.2808 8.32717 21.2931 8.42072C21.342 8.79208 21.2413 9.16767 21.0133 9.46484C20.9414 9.55858 20.8128 9.67613 20.4708 9.89093C19.7123 10.3676 19.1968 11.1987 19.1967 12.1459C19.1967 13.0932 19.7122 13.9244 20.4708 14.4011C20.8127 14.6159 20.9412 14.7334 21.0132 14.8272C21.2412 15.1243 21.3419 15.4999 21.293 15.8713C21.2807 15.9648 21.2433 16.0961 21.1234 16.341C21.0001 16.5926 20.8199 16.9056 20.5509 17.3715C20.2819 17.8375 20.101 18.15 19.9446 18.3826C19.7925 18.6088 19.6975 18.7069 19.6226 18.7643C19.3254 18.9924 18.9499 19.093 18.5785 19.0442C18.4614 19.0287 18.2952 18.976 17.9383 18.7875C17.1463 18.3687 16.1686 18.338 15.3482 18.8116C14.528 19.2853 14.0659 20.1473 14.0325 21.0426C14.0173 21.446 13.9799 21.6162 13.9346 21.7254C13.7914 22.0714 13.5163 22.3464 13.1703 22.4898C13.0832 22.5258 12.9507 22.5592 12.6787 22.5777C12.3991 22.5968 12.038 22.5973 11.5 22.5973C10.962 22.5973 10.6008 22.5968 10.3212 22.5777C10.0493 22.5592 9.91683 22.5258 9.8296 22.4898C9.48364 22.3464 9.20864 22.0714 9.0653 21.7254C9.02008 21.6162 8.9826 21.446 8.96751 21.0426C8.93403 20.1474 8.47193 19.2853 7.65157 18.8116C6.83122 18.338 5.85364 18.3689 5.06156 18.7875C4.70461 18.9762 4.53849 19.0288 4.42135 19.0442C4.04997 19.0931 3.6744 18.9924 3.37723 18.7644C3.30237 18.707 3.20731 18.6089 3.05524 18.3826C2.89893 18.1501 2.71798 17.8376 2.44896 17.3716C2.17993 16.9057 1.99978 16.5927 1.8765 16.3411C1.75658 16.0962 1.7192 15.9648 1.70689 15.8713C1.658 15.4999 1.75864 15.1243 1.98666 14.8272C2.05859 14.7335 2.18723 14.6159 2.52911 14.4011C3.28768 13.9245 3.80317 13.0933 3.80321 12.1461C3.80327 11.1987 3.28776 10.3675 2.52912 9.89082C2.18732 9.67602 2.05869 9.55849 1.98677 9.46476C1.75875 9.16759 1.65811 8.79201 1.707 8.42064C1.71932 8.3271 1.75669 8.19574 1.87662 7.95092C1.9999 7.69923 2.18004 7.3863 2.44906 6.92033C2.71809 6.45437 2.89903 6.14189 3.05536 5.90928C3.20742 5.68302 3.30248 5.58497 3.37733 5.52754C3.67451 5.29951 4.05009 5.19887 4.42145 5.24776C4.53861 5.26318 4.70473 5.31581 5.06173 5.50451C5.85377 5.92314 6.8313 5.95395 7.65161 5.48034C8.47194 5.00674 8.93403 4.14475 8.96751 3.24951C8.9826 2.846 9.02008 2.67582 9.0653 2.56665C9.20864 2.22059 9.48364 1.94565 9.8296 1.8023Z" fill="#989B86"/>
</svg>
