<svg width="23" height="23" viewBox="0 0 23 23" fill="none" xmlns="http://www.w3.org/2000/svg">
<path d="M20.5357 9.03571H20.4675L19.7775 0.75325C19.7414 0.32775 19.3857 0 18.9586 0H17.1843C16.7571 0 16.4015 0.32775 16.3653 0.75325L15.6753 9.03571H14.7167L14.0267 0.75325C13.9914 0.32775 13.6357 0 13.2086 0H11.4343C11.0071 0 10.6515 0.32775 10.6153 0.75325L9.92532 9.03571H2.46429C1.10318 9.03571 0 10.1389 0 11.5V20.5357C0 21.8968 1.10318 23 2.46429 23H8.21429H14.7857H20.5357C21.8968 23 23 21.8968 23 20.5357V11.5C23 10.1389 21.8968 9.03571 20.5357 9.03571ZM17.1843 0.821429H18.9586L19.6428 9.03571H16.5L17.1843 0.821429ZM11.4343 0.821429H13.2086L13.8928 9.03571H10.75L11.4343 0.821429ZM8.21429 22.1786V18.0714H11.0893V22.1786H8.21429ZM11.9107 22.1786V18.0714H14.7857V22.1786H11.9107ZM22.1786 20.5357C22.1786 21.4418 21.4418 22.1786 20.5357 22.1786H15.6071V18.0714C15.6071 17.618 15.2391 17.25 14.7857 17.25H8.21429C7.76086 17.25 7.39286 17.618 7.39286 18.0714V22.1786H2.46429C1.55825 22.1786 0.821429 21.4418 0.821429 20.5357V11.5C0.821429 10.594 1.55825 9.85714 2.46429 9.85714H20.5357C21.4418 9.85714 22.1786 10.594 22.1786 11.5V20.5357ZM4.92857 17.25H3.28571C2.83229 17.25 2.46429 17.618 2.46429 18.0714V19.7143C2.46429 20.1677 2.83229 20.5357 3.28571 20.5357H4.92857C5.382 20.5357 5.75 20.1677 5.75 19.7143V18.0714C5.75 17.618 5.382 17.25 4.92857 17.25ZM4.92857 19.7143H3.28571V18.0714H4.92857V19.7143ZM19.7143 17.25H18.0714C17.618 17.25 17.25 17.618 17.25 18.0714V19.7143C17.25 20.1677 17.618 20.5357 18.0714 20.5357H19.7143C20.1677 20.5357 20.5357 20.1677 20.5357 19.7143V18.0714C20.5357 17.618 20.1677 17.25 19.7143 17.25ZM19.7143 19.7143H18.0714V18.0714H19.7143V19.7143ZM19.7143 12.3214H18.0714C17.618 12.3214 17.25 12.6894 17.25 13.1429V14.7857C17.25 15.2391 17.618 15.6071 18.0714 15.6071H19.7143C20.1677 15.6071 20.5357 15.2391 20.5357 14.7857V13.1429C20.5357 12.6894 20.1677 12.3214 19.7143 12.3214ZM19.7143 14.7857H18.0714V13.1429H19.7143V14.7857ZM14.7857 12.3214H13.1429C12.6894 12.3214 12.3214 12.6894 12.3214 13.1429V14.7857C12.3214 15.2391 12.6894 15.6071 13.1429 15.6071H14.7857C15.2391 15.6071 15.6071 15.2391 15.6071 14.7857V13.1429C15.6071 12.6894 15.2391 12.3214 14.7857 12.3214ZM14.7857 14.7857H13.1429V13.1429H14.7857V14.7857ZM9.85714 12.3214H8.21429C7.76086 12.3214 7.39286 12.6894 7.39286 13.1429V14.7857C7.39286 15.2391 7.76086 15.6071 8.21429 15.6071H9.85714C10.3106 15.6071 10.6786 15.2391 10.6786 14.7857V13.1429C10.6786 12.6894 10.3106 12.3214 9.85714 12.3214ZM9.85714 14.7857H8.21429V13.1429H9.85714V14.7857ZM4.92857 12.3214H3.28571C2.83229 12.3214 2.46429 12.6894 2.46429 13.1429V14.7857C2.46429 15.2391 2.83229 15.6071 3.28571 15.6071H4.92857C5.382 15.6071 5.75 15.2391 5.75 14.7857V13.1429C5.75 12.6894 5.382 12.3214 4.92857 12.3214ZM4.92857 14.7857H3.28571V13.1429H4.92857V14.7857Z" fill="#989B86"/>
</svg>
