<svg width="25" height="25" viewBox="0 0 25 25" fill="none" xmlns="http://www.w3.org/2000/svg">
<path d="M1 6.06284C1 3.67619 1 2.48287 1.74144 1.74144C2.48287 1 3.67619 1 6.06284 1C8.44949 1 9.64282 1 10.3842 1.74144C11.1257 2.48287 11.1257 3.67619 11.1257 6.06284V12.3914V18.72C11.1257 21.1066 11.1257 22.2999 10.3842 23.0413C9.64282 23.7828 8.44949 23.7828 6.06284 23.7828C3.67619 23.7828 2.48287 23.7828 1.74144 23.0413C1 22.2999 1 21.1066 1 18.72V12.3914V6.06284Z" stroke="#989B86" stroke-linejoin="round"/>
<path d="M11.1257 6.6957L13.2414 4.57998C14.929 2.89235 15.7729 2.04855 16.8214 2.04855C17.8699 2.04855 18.7137 2.89235 20.4013 4.57998L21.4686 5.64715C23.1561 7.33477 24 8.17857 24 9.22712C24 10.2756 23.1561 11.1195 21.4686 12.8071L11.1257 23.1499" stroke="#989B86" stroke-linejoin="round"/>
<path d="M6.06287 23.7828H18.72C21.1066 23.7828 22.2999 23.7828 23.0414 23.0414C23.7828 22.2999 23.7828 21.1066 23.7828 18.72V16.8214C23.7828 16.2332 23.7828 15.9392 23.7342 15.6947C23.5345 14.6904 22.7495 13.9055 21.7453 13.7057C21.5007 13.6571 21.2067 13.6571 20.6185 13.6571" stroke="#989B86" stroke-linejoin="round"/>
<path d="M6.06287 18.7326V18.72" stroke="#989B86" stroke-linecap="round" stroke-linejoin="round"/>
</svg>
