<svg width="23" height="23" viewBox="0 0 23 23" fill="none" xmlns="http://www.w3.org/2000/svg">
<path d="M16.2916 20.125V18.2083C16.2916 17.1917 15.8878 16.2166 15.1689 15.4978C14.45 14.7789 13.475 14.375 12.4583 14.375H4.79165C3.77498 14.375 2.79996 14.7789 2.08107 15.4978C1.36218 16.2166 0.958313 17.1917 0.958313 18.2083V20.125" stroke="#989B86" stroke-linecap="round" stroke-linejoin="round"/>
<path d="M8.62502 10.5417C10.7421 10.5417 12.4584 8.82542 12.4584 6.70833C12.4584 4.59124 10.7421 2.875 8.62502 2.875C6.50793 2.875 4.79169 4.59124 4.79169 6.70833C4.79169 8.82542 6.50793 10.5417 8.62502 10.5417Z" stroke="#989B86" stroke-linecap="round" stroke-linejoin="round"/>
<path d="M22.0417 20.125V18.2083C22.0411 17.359 21.7584 16.5339 21.238 15.8626C20.7176 15.1914 19.9891 14.7119 19.1667 14.4996" stroke="#989B86" stroke-linecap="round" stroke-linejoin="round"/>
<path d="M15.3333 2.99959C16.1579 3.21071 16.8887 3.69026 17.4106 4.36264C17.9325 5.03501 18.2158 5.86197 18.2158 6.71313C18.2158 7.56429 17.9325 8.39125 17.4106 9.06362C16.8887 9.736 16.1579 10.2155 15.3333 10.4267" stroke="#989B86" stroke-linecap="round" stroke-linejoin="round"/>
</svg>
