<svg width="25" height="27" viewBox="0 0 25 27" fill="none" xmlns="http://www.w3.org/2000/svg">
<path fill-rule="evenodd" clip-rule="evenodd" d="M8.25815 10.858H3.599C2.91536 10.8523 2.25746 11.1185 1.77006 11.5979C1.28264 12.0773 1.00564 12.7307 1 13.4143V23.0891C1.01265 24.5121 2.17602 25.6557 3.599 25.6437H8.25815C8.94175 25.6495 9.59971 25.3833 10.0871 24.9039C10.5746 24.4245 10.8516 23.7712 10.8572 23.0874V13.4143C10.8516 12.7307 10.5746 12.0773 10.0871 11.5979C9.59971 11.1185 8.94175 10.8523 8.25815 10.858Z" stroke="#989B86" stroke-linecap="round" stroke-linejoin="round"/>
<path fill-rule="evenodd" clip-rule="evenodd" d="M8.25815 1.00099H3.599C2.20464 0.962319 1.04204 2.05952 1 3.45378V5.11964C1.04204 6.51392 2.20464 7.61112 3.599 7.57243H8.25815C9.65245 7.61112 10.8151 6.51392 10.8572 5.11964V3.45378C10.8151 2.05952 9.65245 0.962319 8.25815 1.00099Z" stroke="#989B86" stroke-linecap="round" stroke-linejoin="round"/>
<path fill-rule="evenodd" clip-rule="evenodd" d="M16.7419 15.7869H21.3995C22.0834 15.7929 22.7417 15.527 23.2294 15.0476C23.7172 14.568 23.9945 13.9145 24.0001 13.2306V3.55736C23.9945 2.87373 23.7175 2.22033 23.2301 1.74093C22.7427 1.26153 22.0847 0.995381 21.4011 1.00107H16.7419C16.0584 0.995381 15.4004 1.26153 14.913 1.74093C14.4255 2.22033 14.1485 2.87373 14.1429 3.55736V13.2306C14.1485 13.9142 14.4255 14.5675 14.913 15.0469C15.4004 15.5263 16.0584 15.7925 16.7419 15.7869Z" stroke="#989B86" stroke-linecap="round" stroke-linejoin="round"/>
<path fill-rule="evenodd" clip-rule="evenodd" d="M16.7419 25.6439H21.3995C22.7944 25.6835 23.958 24.5861 24.0001 23.1911V21.5253C23.958 20.131 22.7954 19.0339 21.4011 19.0725H16.7419C15.3477 19.0339 14.185 20.131 14.1429 21.5253V23.1895C14.184 24.5844 15.347 25.6825 16.7419 25.6439Z" stroke="#989B86" stroke-linecap="round" stroke-linejoin="round"/>
</svg>
