<svg width="23" height="23" viewBox="0 0 23 23" fill="none" xmlns="http://www.w3.org/2000/svg">
<path d="M21.9541 5.89593C21.0993 3.5948 18.8698 4.02163 17.8673 4.715C18.1583 3.70867 18.4373 3.0511 18.4445 3.0345C18.5271 2.84334 18.4388 2.62162 18.2481 2.53906C18.0577 2.45649 17.8349 2.54434 17.7527 2.7355C17.6791 2.90477 16.0872 6.64625 16.5292 10.2376H17.2885C17.1373 9.09631 17.2139 7.91917 17.3835 6.85554C19.3751 8.60541 20.5089 6.51013 21.188 6.37516C21.6732 6.27864 22.4552 7.24503 21.9541 5.89593Z" fill="#989B86"/>
<path d="M23 20.418H0V22.3032H23V20.418Z" fill="#989B86"/>
<path d="M9.72788 14.3852H6.83743H6.35106H2.71478L3.16724 16.6475H9.27542L9.72788 14.3852Z" fill="#989B86"/>
<path d="M10.1803 12.1229H9.04841H8.49304H8.04543H7.78113H7.55527H7.24875H6.96934H6.9671H6.67827H5.83557H5.58295H5.08183H4.71008H4.21953H2.26227L2.63934 14.0081H6.03615H7.05834H9.80326L10.1803 12.1229Z" fill="#989B86"/>
<path d="M8.67217 19.6639L9.20002 17.0245H3.24261L3.7705 19.6639H8.67217Z" fill="#989B86"/>
<path d="M0.754089 9.48355L1.50819 11.7458H1.88522H2.86478H3.41715H4.18407H4.70439H5.02034H5.27297H5.54708H5.83591H6.17264H6.64959H6.97007H6.98478H7.46173H7.54015H7.58617H7.75848H8.21961H8.4681H8.50844H9.04157H10.9344L11.6885 9.48355H9.18222C9.33229 8.41236 9.62415 7.2925 10.1645 6.33518C10.1645 6.33518 9.89223 6.60402 9.56682 7.23821C9.70518 6.09726 9.60226 5.39143 9.55097 5.1403C9.8892 4.19843 10.3322 3.28105 10.9132 2.47834C10.9132 2.47834 8.79911 4.1215 7.87724 9.48316H7.75205C7.77354 9.02317 7.81163 8.54015 7.87042 8.0466C8.04162 7.31963 8.29271 6.60177 8.65657 5.95776C8.65657 5.95776 8.37981 6.23223 8.05065 6.87778C8.27611 5.6931 8.64561 4.49897 9.23761 3.45076C9.23761 3.45076 7.62272 5.02492 7.11557 9.48355H6.62739C6.62325 9.40248 6.61946 9.31917 6.61607 9.23317C6.6945 7.30532 7.04404 4.95557 8.10656 3.07369C8.10656 3.07369 7.39694 3.76707 6.77068 5.53243C6.96712 4.05893 7.3615 2.5085 8.10656 1.18846C8.10656 1.18846 5.95775 3.28298 5.83934 9.48355H5.56412C5.53435 9.34629 5.50529 9.20569 5.47666 9.06125C5.53849 7.09681 5.87518 4.64525 6.97544 2.69666C6.97544 2.69666 5.82507 3.81876 5.16106 6.84986C5.03098 5.3311 5.08224 3.68 5.54831 2.19065C5.54831 2.19065 4.17997 4.24823 4.80777 9.17663C4.79835 9.27729 4.79003 9.3806 4.78214 9.4839H4.52687C4.40921 9.04426 4.28481 8.63553 4.15658 8.25207C4.70293 4.64296 4.15698 3.16189 4.15698 3.16189C4.29684 4.38655 4.19921 5.74996 4.00387 7.0342C4.17922 2.50889 2.80563 0.69677 2.80563 0.69677C3.49637 2.50736 3.56502 4.60527 3.42058 6.40265C2.33054 4.09737 1.22689 3.34666 1.22689 3.34666C2.20007 4.52795 2.86218 6.00298 3.31274 7.43311C3.20904 8.23886 3.07522 8.94434 2.95641 9.48351H0.754089V9.48355ZM9.52163 5.22515C9.48882 6.61159 9.11818 8.01419 8.62274 9.28747C8.7626 8.08319 9.02694 6.63043 9.52163 5.22515Z" fill="#989B86"/>
<path d="M16.9672 19.6639H17.3442C18.9742 19.6639 19.9836 18.0984 19.9836 16.6475V15.5163H13.9508V16.6475C13.9508 18.1979 15.4168 19.6639 16.9672 19.6639Z" fill="#989B86"/>
<path d="M19.9836 10.6147H17.3481H16.5834H13.9508V15.1393H19.9836V10.6147Z" fill="#989B86"/>
</svg>
