<svg width="23" height="23" viewBox="0 0 23 23" fill="none" xmlns="http://www.w3.org/2000/svg">
<g clip-path="url(#clip0_30_8695)">
<path d="M22.2812 0H0.71875C0.528126 0 0.345309 0.0757252 0.210517 0.210517C0.0757252 0.345309 0 0.528126 0 0.71875L0 5.51281C0 5.70344 0.0757252 5.88625 0.210517 6.02105C0.345309 6.15584 0.528126 6.23156 0.71875 6.23156H22.2812C22.4719 6.23156 22.6547 6.15584 22.7895 6.02105C22.9243 5.88625 23 5.70344 23 5.51281V0.71875C23 0.528126 22.9243 0.345309 22.7895 0.210517C22.6547 0.0757252 22.4719 0 22.2812 0ZM20.6066 2.63781H21.5625V3.59375H20.6066V2.63781ZM1.4375 1.4375H19.3559C19.2361 1.56932 19.1695 1.74093 19.1691 1.91906V4.3125C19.1695 4.49063 19.2361 4.66224 19.3559 4.79406H1.4375V1.4375Z" fill="#989B86"/>
<path d="M22.2812 8.38782H0.71875C0.528126 8.38782 0.345309 8.46354 0.210517 8.59833C0.0757252 8.73313 0 8.91594 0 9.10657L0 13.8934C0 14.0841 0.0757252 14.2669 0.210517 14.4017C0.345309 14.5365 0.528126 14.6122 0.71875 14.6122H22.2812C22.4719 14.6122 22.6547 14.5365 22.7895 14.4017C22.9243 14.2669 23 14.0841 23 13.8934V9.10657C23 8.91594 22.9243 8.73313 22.7895 8.59833C22.6547 8.46354 22.4719 8.38782 22.2812 8.38782ZM13.4191 11.0184H21.5625V11.9816H13.4191V11.0184ZM1.4375 9.82532H12.1684C12.0503 9.95529 11.9838 10.124 11.9816 10.2997V12.7003C11.9838 12.876 12.0503 13.0447 12.1684 13.1747H1.4375V9.82532Z" fill="#989B86"/>
<path d="M22.2812 16.7684H0.71875C0.528126 16.7684 0.345309 16.8442 0.210517 16.9789C0.0757252 17.1137 0 17.2966 0 17.4872L0 22.2812C0 22.4719 0.0757252 22.6547 0.210517 22.7895C0.345309 22.9243 0.528126 23 0.71875 23H22.2812C22.4719 23 22.6547 22.9243 22.7895 22.7895C22.9243 22.6547 23 22.4719 23 22.2812V17.4872C23 17.2966 22.9243 17.1137 22.7895 16.9789C22.6547 16.8442 22.4719 16.7684 22.2812 16.7684ZM20.6066 19.4062H21.5625V20.3622H20.6066V19.4062ZM1.4375 18.2059H19.3559C19.2361 18.3378 19.1695 18.5094 19.1691 18.6875V21.0809C19.1695 21.2591 19.2361 21.4307 19.3559 21.5625H1.4375V18.2059Z" fill="#989B86"/>
</g>
<defs>
<clipPath id="clip0_30_8695">
<rect width="23" height="23" fill="white"/>
</clipPath>
</defs>
</svg>
