<svg width="23" height="23" viewBox="0 0 23 23" fill="none" xmlns="http://www.w3.org/2000/svg">
<g clip-path="url(#clip0_30_8770)">
<path d="M16.7606 16.1489C16.9633 16.1489 17.1276 15.9846 17.1276 15.7819V13.8245C17.1276 13.6218 16.9633 13.4575 16.7606 13.4575H6.23933C6.03664 13.4575 5.87231 13.6218 5.87231 13.8245V15.7819C5.87231 15.9846 6.03664 16.1489 6.23933 16.1489H6.36165V16.8829H6.23933C6.03664 16.8829 5.87231 17.0472 5.87231 17.25V19.2074C5.87231 19.4101 6.03664 19.5744 6.23933 19.5744H6.36165V20.3084H6.23933C6.03664 20.3084 5.87231 20.4727 5.87231 20.6754V22.6329C5.87231 22.8356 6.03664 22.9999 6.23933 22.9999H16.7606C16.9633 22.9999 17.1276 22.8356 17.1276 22.6329V20.6754C17.1276 20.4727 16.9633 20.3084 16.7606 20.3084H16.6382V19.5744H16.7606C16.9633 19.5744 17.1276 19.4101 17.1276 19.2074V17.25C17.1276 17.0472 16.9633 16.8829 16.7606 16.8829H16.6382V16.1489H16.7606ZM16.3936 22.2659H6.60638V21.0425H16.3936V22.2659ZM16.3936 18.8404H14.8031C14.6004 18.8404 14.4361 19.0047 14.4361 19.2074C14.4361 19.4101 14.6004 19.5744 14.8031 19.5744H15.9042V20.3084H7.09572V19.5744H13.3351C13.5378 19.5744 13.7021 19.4101 13.7021 19.2074C13.7021 19.0047 13.5378 18.8404 13.3351 18.8404H6.60638V17.617H16.3936V18.8404ZM7.09572 16.8829V16.1489H15.9042V16.8829H7.09572ZM16.3936 15.4149H6.60638V14.1915H16.3936V15.4149Z" fill="#989B86"/>
<path d="M22.8349 7.40101L11.702 0.0605969C11.5794 -0.0201277 11.4205 -0.0201277 11.2979 0.0605969L0.165025 7.40101C-0.00419541 7.5126 -0.0509142 7.74022 0.0606268 7.90944L0.868771 9.13509C0.922363 9.21635 1.00605 9.27299 1.10138 9.29263C1.19666 9.31217 1.29593 9.29307 1.37724 9.23953L2.32455 8.61489V22.6329C2.32455 22.8356 2.48888 22.9999 2.69157 22.9999H4.77136C4.97405 22.9999 5.13837 22.8356 5.13837 22.6329V11.2553H17.8617V22.6329C17.8617 22.8356 18.026 22.9999 18.2287 22.9999H20.3085C20.5113 22.9999 20.6755 22.8356 20.6755 22.6329V8.61493L21.6228 9.23948C21.6832 9.27928 21.7536 9.30008 21.8249 9.30008C21.8495 9.30008 21.8742 9.29757 21.8987 9.29258C21.994 9.27299 22.0777 9.21635 22.1313 9.13504L22.9395 7.90939C23.0509 7.74022 23.0042 7.5126 22.8349 7.40101ZM19.9414 22.2659H18.5957V10.8883C18.5957 10.6856 18.4314 10.5213 18.2287 10.5213H4.77127C4.56858 10.5213 4.40426 10.6856 4.40426 10.8883V22.2659H3.05849V8.13095L11.4999 2.56513L19.9414 8.13095V22.2659ZM21.7204 8.42465L11.702 1.81906C11.6407 1.77868 11.5704 1.75846 11.4999 1.75846C11.4295 1.75846 11.3592 1.77868 11.2979 1.81906L1.27949 8.42465L0.87542 7.81182L11.4999 0.806704L22.1244 7.81182L21.7204 8.42465Z" fill="#989B86"/>
</g>
<defs>
<clipPath id="clip0_30_8770">
<rect width="23" height="23" fill="white"/>
</clipPath>
</defs>
</svg>
